# xmcd CD database file
#
# Track frame offsets:
#	150
#	16881
#	32905
#	50811
#	67303
#	81806
#	98986
#	114202
#	129400
#	147517
#	165912
#	179975
#
# Disc length: 2660 seconds
#
# Revision: 1
# Processed by: cddbd v1.5.1PL2 Copyright (c) Steve Scherf et al.
# Submitted via: CDex 1.51
#
DISCID=ab0a620c
DTITLE=Mary. L - bossanova
DYEAR=2005
DGENRE=Jazz Vocal
TTITLE0=Il pleut sur Rio
TTITLE1=La plage des amoureux
TTITLE2=Bossa gache
TTITLE3=Piano-Bar
TTITLE4=Les amants
TTITLE5=Eternite
TTITLE6=L'amour c'est gratuit
TTITLE7=La beaute
TTITLE8=Alanguie
TTITLE9=Voyage Pacifique
TTITLE10=Parfum perdu
TTITLE11=Les cometes
EXTD=YEAR: 2005
EXTT0=
EXTT1=
EXTT2=
EXTT3=
EXTT4=
EXTT5=
EXTT6=
EXTT7=
EXTT8=
EXTT9=
EXTT10=
EXTT11=
PLAYORDER=
